<?xml version="1.0" encoding="UTF-8" standalone="no"?>
<!DOCTYPE svg PUBLIC "-//W3C//DTD SVG 1.1//EN" "http://www.w3.org/Graphics/SVG/1.1/DTD/svg11.dtd">
<svg width="100%" height="100%" viewBox="0 0 1818 1731" version="1.1" xmlns="http://www.w3.org/2000/svg" xmlns:xlink="http://www.w3.org/1999/xlink" xml:space="preserve" xmlns:serif="http://www.serif.com/" style="fill-rule:evenodd;clip-rule:evenodd;stroke-linejoin:round;stroke-miterlimit:2;">
    <g transform="matrix(1,0,0,1,-3774.501841,-541.384297)">
        <g transform="matrix(0.697101,0,0,1,966.04917,0)">
            <g id="LogoSansNom" transform="matrix(6.129439,0,0,4.272839,3744.094488,122.765764)">
                <g transform="matrix(0.823056,0.131056,-0.131056,0.823056,309.401891,117.200643)">
                    <g id="elements">
                        <path d="M0,128.814C0,128.814 -4.323,140.701 0,144.303C0,144.303 2.161,147.545 14.409,144.303L38.185,182.849C38.185,182.849 44.668,180.688 46.47,173.843L44.669,125.573L92.58,78.741L152.019,170.961C152.019,170.961 154.688,174.409 159.968,170.659C159.968,170.659 166.582,166.356 163.335,157.833L136.547,34.04L180.788,-10.201C180.788,-10.201 198.241,-33.336 188.094,-44.701C188.094,-44.701 172.669,-54.035 149.535,-32.523L109.759,6.44L-19.309,-19.942C-19.309,-19.942 -29.862,-19.535 -28.644,-9.389L65.52,51.37L18.356,98.29L-30.674,97.763C-30.674,97.763 -38.384,101.416 -37.979,105.879L0,128.814Z" style="fill:white;fill-rule:nonzero;stroke:black;stroke-width:0.59px;"/>
                    </g>
                </g>
                <g transform="matrix(0.956693,0,0,0.986842,1.919275,6.01266)">
                    <path d="M46.793,374.033C70.557,365.289 94.235,354.753 117.55,342.406C128.884,336.404 140.133,329.973 151.264,323.113C153.596,321.676 155.912,320.226 158.213,318.764C162.844,315.822 167.413,312.829 171.917,309.79C189.385,329.667 203.298,352.414 212.888,377.017C202.847,384.347 192.419,391.411 181.618,398.175C144.718,421.286 106.329,439.108 67.903,451.722C54.583,432.786 46.793,409.908 46.793,385.28L46.793,374.033Z" style="fill:rgb(254,65,81);stroke:black;stroke-width:0.5px;stroke-linecap:round;stroke-miterlimit:1.5;"/>
                </g>
                <g transform="matrix(2.592722,-1.674975,1.223403,1.893726,-465.667432,-124.548837)">
                    <path d="M122.279,356.563C115.452,358.713 108.387,360.324 101.135,361.347C102.179,356.802 103.004,352.187 103.612,347.534C110.509,346.299 117.201,344.47 123.634,342.103C123.489,346.951 123.038,351.79 122.279,356.563Z" style="fill:rgb(0,175,189);stroke:black;stroke-width:0.18px;stroke-linecap:round;stroke-miterlimit:1.5;"/>
                </g>
                <g transform="matrix(2.592722,-1.674975,1.223403,1.893726,-527.830604,-212.88676)">
                    <path d="M121.139,356.916C116.061,358.465 110.853,359.716 105.537,360.65C105.101,356.235 104.473,351.851 103.653,347.526C108.122,346.725 112.505,345.674 116.787,344.388C118.503,348.418 119.954,352.61 121.139,356.916Z" style="fill:rgb(0,175,189);stroke:black;stroke-width:0.18px;stroke-linecap:round;stroke-miterlimit:1.5;"/>
                </g>
                <g transform="matrix(2.592722,-1.674975,1.223403,1.893726,-465.667432,-124.548837)">
                    <path d="M94.304,348.823C93.584,353.397 92.625,357.92 91.425,362.354C88.473,362.551 85.494,362.651 82.493,362.651C69.609,362.651 57.153,360.808 45.373,357.372C44.288,352.696 43.688,347.821 43.599,342.904C55.791,347.115 68.877,349.402 82.493,349.402C86.478,349.402 90.418,349.206 94.304,348.823Z" style="fill:rgb(254,142,63);stroke:black;stroke-width:0.18px;stroke-linecap:round;stroke-miterlimit:1.5;"/>
                </g>
                <g transform="matrix(2.592722,-1.674975,1.223403,1.893726,-446.598967,-26.400876)">
                    <path d="M91.914,349.034C91.201,350.242 90.465,351.434 89.704,352.608C88.845,353.933 87.966,355.219 87.068,356.465L79.026,349.352C80.177,349.385 81.333,349.402 82.493,349.402C85.663,349.402 88.806,349.278 91.914,349.034Z" style="fill:rgb(254,142,63);stroke:black;stroke-width:0.18px;stroke-linecap:round;stroke-miterlimit:1.5;"/>
                </g>
                <g transform="matrix(2.60488,-1.656003,1.209546,1.902606,-506.893702,-228.499749)">
                    <path d="M89.616,357.739C89.831,359.297 90.019,360.862 90.18,362.431C88.48,362.529 86.772,362.594 85.056,362.627C84.203,362.643 83.349,362.651 82.493,362.651C78.404,362.651 74.359,362.465 70.365,362.102C62.149,361.355 54.149,359.857 46.433,357.676L52.094,345.485C61.033,347.839 70.381,349.179 80.007,349.376C80.834,349.393 81.662,349.402 82.493,349.402C84.393,349.402 86.283,349.357 88.162,349.269C88.487,350.846 88.782,352.433 89.049,354.027C89.255,355.26 89.444,356.498 89.616,357.739Z" style="fill:rgb(254,142,63);stroke:black;stroke-width:0.18px;stroke-linecap:round;stroke-miterlimit:1.5;"/>
                </g>
                <g transform="matrix(1.945118,-0.305645,0.335328,2.134016,-394.129663,-459.784902)">
                    <path d="M270.731,473.489C262.424,478.438 253.522,482.49 244.158,485.51C244.516,484.568 244.862,483.618 245.196,482.662C246.672,478.435 247.87,474.188 248.798,469.937C259.662,465.458 269.709,459.393 278.648,452.032C277.949,455.236 277.047,458.438 275.934,461.624C274.494,465.749 272.749,469.708 270.731,473.489Z" style="fill:rgb(0,175,189);stroke:black;stroke-width:0.24px;stroke-linecap:round;stroke-miterlimit:1.5;"/>
                </g>
                <g transform="matrix(0.402847,0,0,0.533695,0,0)">
                    <path d="M528.049,750.312C523.106,736.065 517.186,722.077 510.338,708.399C481.888,651.575 437.426,600.104 380.493,557.64C373.981,552.783 367.306,548.043 360.473,543.427C292.834,497.733 209.727,464.12 116.299,447.891L115.89,447.82L115.89,398.385C118.902,397.643 121.924,396.922 124.957,396.221C197.198,379.524 275.358,374.532 354.928,383.751C508.888,401.59 636.673,468.988 714.331,561.232C729.08,578.751 742.021,597.167 752.989,616.309C773.878,652.764 787.615,691.856 793.065,732.414C796.997,761.676 796.616,791.702 791.497,822.052C790.924,825.448 790.292,828.848 789.599,832.251C781.653,871.328 766.351,908.182 744.925,942.131L686.57,942.131C701.395,921.579 713.655,899.707 722.976,876.72C729.575,860.447 734.701,843.615 738.222,826.299C740.943,812.92 742.635,799.601 743.342,786.387C745.927,738.126 735.384,691.27 713.893,648.066C704.283,628.749 692.485,610.161 678.693,592.505C646.776,551.647 604.18,515.774 553.318,487.376C532.614,475.816 510.54,465.495 487.259,456.581C444.284,440.125 397.196,428.462 347.018,422.649C306.659,417.972 266.702,417.358 227.875,420.403C253.606,428.362 278.393,437.562 302.128,447.891C329.729,459.902 355.907,473.44 380.493,488.331C391.401,494.938 401.996,501.811 412.262,508.935C430.672,521.709 448.027,535.291 464.242,549.591C506.534,586.892 541.068,629.086 566.328,674.613C576.548,693.032 585.25,711.996 592.333,731.403C609.079,777.279 616.782,825.626 614.117,875.078C613.173,892.607 610.925,910.276 607.317,928.022C606.5,932.037 605.619,936.031 604.674,940.006L604.162,942.131L534.31,942.131C536.302,934.888 538.053,927.567 539.557,920.171C540.588,915.105 541.493,910.045 542.276,904.994C549.687,857.172 546.072,810.15 532.902,765.447C531.407,760.372 529.789,755.326 528.049,750.312Z" style="fill:rgb(255,190,43);stroke:black;stroke-width:1.03px;stroke-linecap:round;stroke-miterlimit:1.5;"/>
                </g>
                <path d="M46.686,342.555L46.686,239.037L46.85,239.037C84.488,247.698 117.967,265.637 145.215,290.024C140.428,293.303 135.558,296.519 130.607,299.666C128.443,301.041 126.275,302.397 124.102,303.733C98.787,319.299 72.816,332.229 46.686,342.555Z" style="fill:rgb(254,116,44);stroke:black;stroke-width:0.49px;stroke-linecap:round;stroke-miterlimit:1.5;"/>
                <path d="M214.678,408.515C219.819,431.634 221.345,455.914 218.719,480.62C210.956,486.288 202.961,491.786 194.74,497.097C191.734,499.039 188.717,500.944 185.691,502.81L163.273,502.81C135.146,502.81 109.332,492.828 89.183,476.217C104.047,470.559 118.876,464.143 133.594,456.962C153.28,447.358 172.768,436.387 191.881,424.04C197.968,420.107 203.943,416.083 209.805,411.972C211.438,410.826 213.062,409.674 214.678,408.515Z" style="fill:rgb(0,174,195);stroke:black;stroke-width:0.49px;stroke-linecap:round;stroke-miterlimit:1.5;"/>
            </g>
        </g>
    </g>
</svg>
